<?xml version="1.0" encoding="UTF-8" standalone="no"?>
<!-- Created with Inkscape (http://www.inkscape.org/) -->

<svg
   width="99.002869mm"
   height="34.061096mm"
   viewBox="0 0 99.002869 34.061096"
   version="1.1"
   id="svg12"
   inkscape:version="1.2.1 (9c6d41e410, 2022-07-14, custom)"
   sodipodi:docname="raw-inkscape.svg"
   xmlns:inkscape="http://www.inkscape.org/namespaces/inkscape"
   xmlns:sodipodi="http://sodipodi.sourceforge.net/DTD/sodipodi-0.dtd"
   xmlns="http://www.w3.org/2000/svg"
   xmlns:svg="http://www.w3.org/2000/svg">
  <sodipodi:namedview
     id="namedview14"
     pagecolor="#ffffff"
     bordercolor="#000000"
     borderopacity="0.25"
     inkscape:showpageshadow="2"
     inkscape:pageopacity="0.0"
     inkscape:pagecheckerboard="0"
     inkscape:deskcolor="#d1d1d1"
     inkscape:document-units="mm"
     showgrid="false"
     inkscape:zoom="0.72871773"
     inkscape:cx="251.81218"
     inkscape:cy="209.2717"
     inkscape:window-width="1920"
     inkscape:window-height="997"
     inkscape:window-x="0"
     inkscape:window-y="0"
     inkscape:window-maximized="1"
     inkscape:current-layer="layer1"
     showguides="true">
    <sodipodi:guide
       position="165.68473,10.521218"
       orientation="1,0"
       id="guide4058"
       inkscape:locked="false" />
  </sodipodi:namedview>
  <defs
     id="defs9" />
  <g
     inkscape:label="Layer 1"
     inkscape:groupmode="layer"
     id="layer1"
     transform="translate(0.20793775,-0.05500211)">
    <rect
       style="fill:#202024;fill-opacity:1;stroke-width:0.230084"
       id="rect230"
       width="99.002869"
       height="34.0611"
       x="-0.20793776"
       y="0.055002112"
       inkscape:export-filename="raw-inkscape.svg"
       inkscape:export-xdpi="96"
       inkscape:export-ydpi="96" />
    <g
       id="g4724"
       transform="translate(-58.890767,-42.966229)">
      <g
         aria-label="motd.gg"
         id="text963"
         style="font-size:19.7556px;fill:#00875f;stroke-width:0.264583">
        <path
           d="m 74.817749,54.968187 0.106109,1.225079 q 1.109324,-1.418005 2.980704,-1.418005 1.977489,0 2.672022,1.572345 1.061092,-1.572345 3.06752,-1.572345 3.173629,0 3.260445,3.839223 v 6.790988 h -3.260445 v -6.588416 q 0,-0.800642 -0.270096,-1.167201 -0.270097,-0.366559 -0.983922,-0.366559 -0.964629,0 -1.437297,0.85852 l 0.0096,0.135048 v 7.128608 H 77.70199 v -6.569123 q 0,-0.819935 -0.26045,-1.186494 -0.26045,-0.366559 -0.993568,-0.366559 -0.93569,0 -1.427651,0.85852 v 7.263656 H 71.769522 V 54.968187 Z"
           style="font-weight:900;font-family:roboto;-inkscape-font-specification:'roboto Heavy';fill:#ffffff"
           id="path1927" />
        <path
           d="m 88.351493,60.090367 q 0,-1.562699 0.607716,-2.778132 0.607716,-1.225078 1.745978,-1.881026 1.138263,-0.655948 2.672023,-0.655948 2.344048,0 3.694528,1.45659 1.350481,1.446943 1.350481,3.945332 v 0.115756 q 0,2.440511 -1.360127,3.877808 -1.35048,1.427651 -3.66559,1.427651 -2.228293,0 -3.578773,-1.331188 -1.350481,-1.340834 -1.45659,-3.627005 z m 3.250799,0.202572 q 0,1.446943 0.453376,2.122183 0.453376,0.67524 1.340834,0.67524 1.736332,0 1.774917,-2.672022 v -0.327973 q 0,-2.807071 -1.794209,-2.807071 -1.630223,0 -1.765271,2.421219 z"
           style="font-weight:900;font-family:roboto;-inkscape-font-specification:'roboto Heavy';fill:#ffffff"
           id="path1929" />
        <path
           d="m 103.64086,52.373335 v 2.594852 h 1.71704 v 2.257232 h -1.71704 v 4.774913 q 0,0.588423 0.21222,0.819934 0.21222,0.231511 0.83923,0.231511 0.48231,0 0.81029,-0.05788 v 2.324755 q -0.87782,0.279743 -1.8328,0.279743 -1.67845,0 -2.4791,-0.790996 -0.80064,-0.790996 -0.80064,-2.401926 v -5.180057 h -1.331185 v -2.257232 h 1.331185 v -2.594852 z"
           style="font-weight:900;font-family:roboto;-inkscape-font-specification:'roboto Heavy';fill:#ffffff"
           id="path1931" />
        <path
           d="m 106.22607,60.109659 q 0,-2.479096 1.07074,-3.906747 1.07073,-1.427651 2.99035,-1.427651 1.39871,0 2.35369,1.099677 v -5.286166 h 3.26045 v 14.8167 h -2.92283 l -0.16399,-1.11897 q -1.00321,1.311896 -2.54662,1.311896 -1.86173,0 -2.95176,-1.427651 -1.09003,-1.427651 -1.09003,-4.061088 z m 3.2508,0.202572 q 0,2.778131 1.62057,2.778131 1.08039,0 1.54341,-0.906751 V 58.20934 q -0.44373,-0.926044 -1.52411,-0.926044 -1.50482,0 -1.63023,2.430865 z"
           style="font-weight:900;font-family:roboto;-inkscape-font-specification:'roboto Heavy';fill:#ffffff"
           id="path1933" />
        <path
           d="m 119.75981,62.251135 q 0.7717,0 1.28295,0.463022 0.51126,0.453376 0.51126,1.167201 0,0.713826 -0.51126,1.176847 -0.51125,0.453376 -1.28295,0.453376 -0.78135,0 -1.2926,-0.463022 -0.50161,-0.463022 -0.50161,-1.167201 0,-0.704179 0.50161,-1.167201 0.51125,-0.463022 1.2926,-0.463022 z"
           id="path1935" />
        <path
           d="m 123.33858,60.109659 q 0,-1.581991 0.5209,-2.797424 0.5209,-1.215432 1.49518,-1.87138 0.97427,-0.665594 2.26688,-0.665594 1.63022,0 2.54662,1.099677 l 0.11575,-0.906751 h 2.95177 v 10.041787 q 0,1.379419 -0.64631,2.39228 -0.63665,1.022506 -1.85208,1.562698 -1.21544,0.549839 -2.81672,0.549839 -1.14791,0 -2.22829,-0.434083 -1.07074,-0.434083 -1.63987,-1.128616 l 1.36012,-1.909965 q 0.90676,1.070738 2.39228,1.070738 2.16077,0 2.16077,-2.218647 v -0.327973 q -0.93569,1.032153 -2.36334,1.032153 -1.90996,0 -3.08681,-1.45659 -1.17685,-1.466236 -1.17685,-3.916393 z m 3.26045,0.202572 q 0,1.282957 0.48231,2.035367 0.48232,0.742764 1.35048,0.742764 1.05145,0 1.53376,-0.704179 v -4.389061 q -0.47266,-0.713826 -1.51446,-0.713826 -0.86817,0 -1.36013,0.78135 -0.49196,0.771703 -0.49196,2.247585 z"
           id="path1937" />
        <path
           d="m 134.70191,60.109659 q 0,-1.581991 0.5209,-2.797424 0.5209,-1.215432 1.49518,-1.87138 0.97427,-0.665594 2.26688,-0.665594 1.63022,0 2.54662,1.099677 l 0.11575,-0.906751 h 2.95177 v 10.041787 q 0,1.379419 -0.64631,2.39228 -0.63665,1.022506 -1.85208,1.562698 -1.21544,0.549839 -2.81672,0.549839 -1.14791,0 -2.22829,-0.434083 -1.07074,-0.434083 -1.63987,-1.128616 l 1.36013,-1.909965 q 0.90675,1.070738 2.39228,1.070738 2.16076,0 2.16076,-2.218647 v -0.327973 q -0.93569,1.032153 -2.36334,1.032153 -1.90996,0 -3.08681,-1.45659 -1.17685,-1.466236 -1.17685,-3.916393 z m 3.26045,0.202572 q 0,1.282957 0.48231,2.035367 0.48232,0.742764 1.35048,0.742764 1.05145,0 1.53376,-0.704179 v -4.389061 q -0.47266,-0.713826 -1.51446,-0.713826 -0.86817,0 -1.36013,0.78135 -0.49196,0.771703 -0.49196,2.247585 z"
           id="path1939" />
      </g>
      <g
         id="text2604"
         style="font-weight:900;font-size:19.7556px;font-family:roboto;-inkscape-font-specification:'roboto Heavy';fill:#ffffff;stroke-width:0.264583" />
    </g>
    <rect
       style="fill:none;stroke-width:0.264583"
       id="rect535"
       width="2.6117034"
       height="1.3302222"
       x="60.432259"
       y="31.822273" />
  </g>
</svg>
